<?xml version="1.0" standalone="no"?>
<!DOCTYPE svg PUBLIC "-//W3C//DTD SVG 20010904//EN"
 "http://www.w3.org/TR/2001/REC-SVG-20010904/DTD/svg10.dtd">
<svg version="1.0" xmlns="http://www.w3.org/2000/svg"
 width="219.000000pt" height="223.000000pt" viewBox="0 0 219.000000 223.000000"
 preserveAspectRatio="xMidYMid meet">

<g transform="translate(0.000000,223.000000) scale(0.100000,-0.100000)"
fill="#000000" stroke="none">
<path d="M0 1115 l0 -1115 1095 0 1095 0 0 1115 0 1115 -1095 0 -1095 0 0
-1115z m1177 368 c163 -177 283 -411 283 -555 0 -165 -104 -297 -263 -333
-270 -62 -486 147 -431 416 26 123 118 287 245 437 54 64 65 72 96 72 28 0 43
-8 70 -37z"/>
<path d="M1064 1438 c-60 -63 -156 -203 -200 -293 -54 -109 -68 -180 -55 -264
26 -161 129 -245 301 -245 65 0 96 5 131 21 73 33 123 85 149 153 41 110 27
207 -51 361 -51 97 -198 293 -224 297 -13 2 -33 -10 -51 -30z m116 -378 c0
-39 1 -40 33 -40 45 0 57 -15 57 -71 0 -70 -6 -79 -51 -79 -39 0 -39 0 -39
-39 0 -45 -9 -51 -79 -51 -55 0 -71 12 -71 56 0 31 -3 33 -37 36 l-38 3 -3 64
c-3 70 3 81 51 81 22 0 27 5 27 24 0 51 8 56 81 56 l69 0 0 -40z"/>
<path d="M1070 1020 l0 -40 -40 0 c-39 0 -40 -1 -40 -35 0 -34 1 -35 39 -35
40 0 40 0 43 -42 3 -40 5 -43 35 -46 31 -3 32 -2 35 40 3 43 3 43 46 46 41 3
42 4 42 37 0 33 -1 34 -42 37 -42 3 -43 4 -46 41 -3 35 -5 37 -38 37 -33 0
-34 -1 -34 -40z"/>
</g>
</svg>
